<svg xmlns="http://www.w3.org/2000/svg" xmlns:xlink="http://www.w3.org/1999/xlink" width="96" height="56" viewBox="0 0 96 56">
  <defs>
    <clipPath id="clip-path">
      <rect id="사각형_2" data-name="사각형 2" width="81.086" height="41.42" fill="none"/>
    </clipPath>
    <clipPath id="clip-path-2">
      <path id="패스_7" data-name="패스 7" d="M84.227.944a1.758,1.758,0,0,0,.745,2.37l1.619.845L85.479,6.291a17.989,17.989,0,0,0-5.417-1.344A18.187,18.187,0,0,0,68.618,7.738,1.809,1.809,0,1,0,70.543,10.8a14.652,14.652,0,1,1,.307,24.889,1.81,1.81,0,0,0-1.888,3.088A18.267,18.267,0,0,0,88.226,7.736l1.117-2.142,1.619.844a1.757,1.757,0,0,0,1.625-3.115L86.6.2a1.758,1.758,0,0,0-2.371.745" transform="translate(-67.767)" fill="none"/>
    </clipPath>
    <linearGradient id="linear-gradient" x1="-1.747" y1="1" x2="-1.721" y2="1" gradientUnits="objectBoundingBox">
      <stop offset="0" stop-color="#17ddc0"/>
      <stop offset="0.055" stop-color="#18d3bf"/>
      <stop offset="0.511" stop-color="#2388ba"/>
      <stop offset="0.838" stop-color="#2a59b8"/>
      <stop offset="1" stop-color="#2d47b7"/>
    </linearGradient>
  </defs>
  <g id="imgCi" transform="translate(-128 188)">
    <rect id="사각형_4" data-name="사각형 4" width="96" height="56" transform="translate(128 -188)" fill="none"/>
    <g id="그룹_5" data-name="그룹 5" transform="translate(135 -181)">
      <g id="그룹_2" data-name="그룹 2" transform="translate(0 0)">
        <g id="그룹_1" data-name="그룹 1" clip-path="url(#clip-path)">
          <path id="패스_1" data-name="패스 1" d="M33.471,24.154a3.521,3.521,0,0,1,1.935.434,1.445,1.445,0,0,1,.654,1.287,2.212,2.212,0,0,1-.2.9,3.325,3.325,0,0,1-.626.9l-7.041,8.037h6.728a1.195,1.195,0,1,1,0,2.39H27.753a3,3,0,0,1-1.835-.483,1.626,1.626,0,0,1-.64-1.38,1.916,1.916,0,0,1,.228-.875,5.236,5.236,0,0,1,.8-1.074l6.813-7.781h-6.1a1.181,1.181,0,0,1,0-2.361Z" transform="translate(-5.824 -5.565)" fill="#3a3a3d"/>
          <path id="패스_2" data-name="패스 2" d="M11.95,28.43a4.885,4.885,0,0,0-2.207-1.81,4.89,4.89,0,0,0,1.582-1.673,4.36,4.36,0,0,0,.527-2.142,4.7,4.7,0,0,0-1.679-3.646,6.016,6.016,0,0,0-4.154-1.5L0,17.691l.016.379V35.4a1.224,1.224,0,1,0,2.448,0V19.928H6.1a3.31,3.31,0,0,1,2.344.847,2.82,2.82,0,0,1,.911,2.161A2.445,2.445,0,0,1,8.336,25a4.477,4.477,0,0,1-2.747.762H4.521a1.12,1.12,0,1,0,0,2.24H6.488a3.935,3.935,0,0,1,2.656.84A2.827,2.827,0,0,1,10.12,31.1a2.938,2.938,0,0,1-.97,2.324,3.894,3.894,0,0,1-2.663.853H4.573a1.172,1.172,0,0,0,0,2.344H6.462A6.642,6.642,0,0,0,11.012,35.1a5.015,5.015,0,0,0,1.725-3.952,4.843,4.843,0,0,0-.787-2.721" transform="translate(0 -4.07)" fill="#3a3a3d"/>
          <path id="패스_3" data-name="패스 3" d="M19.308,19.039a1.391,1.391,0,0,1,.388-.962,1.38,1.38,0,0,1,2.386.96,1.394,1.394,0,0,1-.4,1.009,1.312,1.312,0,0,1-.983.41,1.331,1.331,0,0,1-.984-.416,1.381,1.381,0,0,1-.41-1m.248,16.434V23.815a1.146,1.146,0,0,1,2.292,0V35.473a1.146,1.146,0,1,1-2.292,0" transform="translate(-4.448 -4.068)" fill="#3a3a3d"/>
          <path id="패스_4" data-name="패스 4" d="M44.7,24.4a.788.788,0,0,0,.788.788h1.855a6.81,6.81,0,0,1,4.7,1.491,5.323,5.323,0,0,1,1.666,4.186,5.522,5.522,0,0,1-1.719,4.251,6.488,6.488,0,0,1-4.6,1.595H42.782a1.237,1.237,0,1,1,0-2.474h4.505a3.939,3.939,0,0,0,2.727-.853,3.138,3.138,0,0,0,.944-2.455,3.125,3.125,0,0,0-.938-2.408,3.633,3.633,0,0,0-2.577-.873H43.088a.789.789,0,0,1-.788-.788V18.857a.789.789,0,0,1,.788-.789h7.681a1.2,1.2,0,1,1,0,2.409H45.484a.789.789,0,0,0-.788.788Z" transform="translate(-9.572 -4.163)" fill="#19d8b8"/>
          <path id="패스_5" data-name="패스 5" d="M62.13,34.146h8.164a1.237,1.237,0,1,1,0,2.474H61.245a2.469,2.469,0,0,1-1.654-.5,1.757,1.757,0,0,1-.586-1.413,2.009,2.009,0,0,1,.338-1.054,4.32,4.32,0,0,1,.964-1.054l6.666-5.365A5.711,5.711,0,0,0,68.49,25.5a4.176,4.176,0,0,0,.488-2,3.307,3.307,0,0,0-1.016-2.48,3.537,3.537,0,0,0-2.565-.984A3.5,3.5,0,0,0,61.8,23.639a3.471,3.471,0,0,0,2.929,3.643.244.244,0,0,1,.1.429l-1.395,1.115a.811.811,0,0,1-.853.1,6.014,6.014,0,0,1-2.374-1.942,5.546,5.546,0,0,1-1-3.294,5.731,5.731,0,0,1,1.777-4.33,6.284,6.284,0,0,1,4.525-1.7A6.124,6.124,0,0,1,69.9,19.29a5.47,5.47,0,0,1,1.719,4.154,6.179,6.179,0,0,1-.853,3.177,10.539,10.539,0,0,1-2.727,2.9Z" transform="translate(-13.594 -4.07)" fill="#19d8b8"/>
          <path id="패스_6" data-name="패스 6" d="M93.267,30.744a11.942,11.942,0,0,0-4.3-13.686.763.763,0,0,0-1.116.277l-4.383,8.4a.767.767,0,0,0,.326,1.036l8.4,4.383a.765.765,0,0,0,1.074-.412" transform="translate(-19.21 -3.899)" fill="#19d8b8"/>
        </g>
      </g>
      <g id="그룹_4" data-name="그룹 4" transform="translate(52.154)">
        <g id="그룹_3" data-name="그룹 3" clip-path="url(#clip-path-2)">
          <rect id="사각형_3" data-name="사각형 3" width="29.688" height="41.42" transform="translate(-0.299 0)" fill="url(#linear-gradient)"/>
        </g>
      </g>
    </g>
  </g>
</svg>
